<svg width="238" height="224" viewBox="0 0 238 224" fill="none" xmlns="http://www.w3.org/2000/svg">
<path d="M75.5288 92.4085L73.6162 89.3587C72.4274 87.4462 70.1013 86.5675 67.9304 87.2911C66.0695 87.9114 64.0019 88.9452 62.658 90.7027C60.3836 93.5456 62.658 96.0267 75.5288 94.8379V92.4085ZM163.919 92.4085L165.831 89.3587C167.02 87.4462 169.346 86.5675 171.517 87.2911C173.378 87.9114 175.445 88.9452 176.789 90.7027C179.064 93.5456 176.789 96.0267 163.919 94.8379V92.4085Z" stroke="#CDD5DF" stroke-width="2" stroke-miterlimit="10" stroke-linecap="round" stroke-linejoin="round"/>
<path d="M80.1808 94.5277C81.8866 89.6172 83.644 85.3269 85.5049 81.7603C86.9005 79.0207 89.3816 77.3666 92.0695 77.3149H92.7415C101.684 77.0565 110.781 76.9531 119.775 76.9531C128.769 76.9531 137.867 77.0565 146.809 77.3149H147.429C150.117 77.3666 152.598 79.0207 153.994 81.7603C155.338 84.3448 157.251 88.48 159.318 94.5277H80.1808ZM139.779 132.21L137.97 126.265C137.35 124.301 135.541 122.905 133.473 122.905H105.974C103.906 122.905 102.097 124.249 101.477 126.265L99.6679 132.21" fill="#CDD5DF"/>
<path d="M90.1053 114.43C90.1053 112.879 89.1749 111.432 87.7276 110.863C84.7295 109.622 79.147 107.71 73.151 107.607C70.9283 107.555 69.0675 109.416 69.1709 111.638C69.2225 113.086 69.6361 114.74 70.98 116.497C71.652 117.376 72.7375 117.893 73.8746 117.945L86.1769 118.358C88.2961 118.41 90.1053 116.652 90.1053 114.43ZM149.342 114.43C149.342 112.879 150.272 111.432 151.72 110.863C154.718 109.622 160.3 107.71 166.296 107.607C168.519 107.555 170.38 109.416 170.276 111.638C170.225 113.086 169.811 114.74 168.467 116.497C167.795 117.376 166.71 117.893 165.573 117.945L153.27 118.358C151.151 118.41 149.342 116.652 149.342 114.43Z" fill="#9AA4B2"/>
<path d="M83.0755 130.143H70.0496C70.0496 130.143 69.0158 139.24 76.5626 138.878" stroke="#CDD5DF" stroke-width="2" stroke-miterlimit="10" stroke-linecap="round" stroke-linejoin="round"/>
<path d="M81.4213 145.392C77.2861 145.392 73.151 144.617 69.3259 143.066L69.1191 142.962M90.1053 114.43C90.1053 112.879 89.1748 111.432 87.7275 110.863C84.7295 109.622 79.147 107.71 73.151 107.607C70.9283 107.555 69.0675 109.416 69.1708 111.638C69.2225 113.086 69.636 114.74 70.98 116.497C71.652 117.376 72.7374 117.893 73.8746 117.945L86.1768 118.358C88.2961 118.41 90.1053 116.652 90.1053 114.43Z" stroke="#9AA4B2" stroke-width="2" stroke-miterlimit="10" stroke-linecap="round" stroke-linejoin="round"/>
<path d="M175.032 141.36V148.7C175.032 150.458 173.636 151.853 171.879 151.853H161.127C159.37 151.853 157.974 150.458 157.974 148.7V145.444H81.4215V148.7C81.4215 150.458 80.0258 151.853 78.2684 151.853H67.5169C65.7594 151.853 64.3638 150.458 64.3638 148.7V141.36C62.7097 132.315 62.6063 118.462 62.658 111.69C62.658 109.106 63.6918 106.625 65.4493 104.712L74.6501 94.8394C77.4413 86.9825 80.1292 81.6585 82.2485 78.1436C84.3161 74.732 88.0378 72.561 92.0696 72.5094H92.5865C110.678 72.0958 128.821 72.0958 146.913 72.5094H147.481C151.513 72.561 155.183 74.732 157.251 78.1436C159.37 81.6068 162.058 86.9308 164.849 94.8394L174.05 104.712C175.807 106.625 176.789 109.106 176.841 111.69C176.789 118.462 176.686 132.263 175.032 141.36Z" stroke="#9AA4B2" stroke-width="2" stroke-miterlimit="10" stroke-linecap="round" stroke-linejoin="round"/>
<path d="M156.372 130.143H169.398C169.398 130.143 170.431 139.24 162.885 138.878" stroke="#CDD5DF" stroke-width="2" stroke-miterlimit="10" stroke-linecap="round" stroke-linejoin="round"/>
<path d="M158.026 145.391C162.161 145.391 166.296 144.616 170.121 143.065L170.328 142.962M74.65 94.8386H164.797M139.779 132.21L137.97 126.266C137.35 124.302 135.541 122.906 133.473 122.906H105.974C103.906 122.906 102.097 124.25 101.477 126.266L99.6679 132.21M66.3796 37.6178C66.3796 37.6178 46.1171 48.7312 41.0515 44.0791C35.1072 38.6516 46.1688 27.3315 60.0217 19.9399C92.8448 2.41697 122.877 13.8405 122.877 13.8405L132.956 14.7192M149.342 114.429C149.342 112.878 150.272 111.431 151.72 110.863C154.718 109.622 160.3 107.709 166.296 107.606C168.519 107.554 170.38 109.415 170.276 111.638C170.225 113.085 169.811 114.739 168.467 116.497C167.795 117.375 166.71 117.892 165.573 117.944L153.27 118.358C151.151 118.409 149.342 116.652 149.342 114.429Z" stroke="#9AA4B2" stroke-width="2" stroke-miterlimit="10" stroke-linecap="round" stroke-linejoin="round"/>
<path d="M94.1371 22.5762C94.1371 22.5762 89.1232 24.2302 81.99 25.0056C74.8567 25.7809 63.1748 26.1945 64.1052 34.103C65.0356 41.9599 83.2822 39.1687 88.5546 41.5464C93.155 43.614 101.787 50.0752 113.159 47.4907C117.553 46.5086 122.101 46.5086 126.443 47.5941C126.495 47.5941 126.495 47.5941 126.547 47.6458" stroke="#9AA4B2" stroke-width="2" stroke-miterlimit="10" stroke-linecap="round" stroke-linejoin="round"/>
<path d="M60.487 40.5124C60.487 40.5124 54.1808 47.4905 57.5924 51.9875C60.6421 56.0193 66.5347 53.4865 70.9284 47.5422C75.6839 41.1326 80.1809 40.2539 80.1809 40.2539" stroke="#9AA4B2" stroke-width="2" stroke-miterlimit="10" stroke-linecap="round" stroke-linejoin="round"/>
<path d="M200.05 18.079C200.05 18.079 156.63 8.568 128.924 10.4288C125.875 10.6356 123.187 12.5481 121.998 15.3911C119.672 21.1287 116.364 31.9319 117.656 45.9398C118.07 50.4369 121.533 54.0035 126.03 54.4687C131.716 55.089 140.348 56.1228 150.014 57.7252C175.187 62.0154 198.447 43.5621 200.05 18.079Z" fill="#CDD5DF"/>
<path d="M135.282 55.5534C131.716 55.0882 128.614 54.7263 126.03 54.4679C121.533 54.0027 118.07 50.4361 117.656 45.9391C116.364 31.9828 119.672 21.1279 121.998 15.442C123.187 12.599 125.875 10.6865 128.924 10.4797C132.181 10.273 135.593 10.1696 139.211 10.273C139.211 10.2213 126.598 33.2233 135.282 55.5534Z" fill="#E3E8EF"/>
<path d="M200.05 18.079C200.05 18.079 156.63 8.568 128.925 10.4288C125.875 10.6356 123.187 12.5481 121.998 15.3911C119.672 21.1287 116.416 31.9319 117.656 45.8882C118.07 50.3852 121.533 53.9518 126.03 54.417M139.211 10.2221C139.211 10.2221 126.598 33.2241 135.282 55.5542" stroke="#9AA4B2" stroke-width="2" stroke-miterlimit="10" stroke-linecap="round" stroke-linejoin="round"/>
<path d="M128.098 21.0778C128.982 21.0778 129.7 20.3604 129.7 19.4754C129.7 18.5905 128.982 17.873 128.098 17.873C127.213 17.873 126.495 18.5905 126.495 19.4754C126.495 20.3604 127.213 21.0778 128.098 21.0778Z" stroke="#9AA4B2" stroke-width="2" stroke-miterlimit="10" stroke-linecap="round" stroke-linejoin="round"/>
<path d="M173.068 186.383C173.068 186.383 193.33 175.269 198.396 179.921C204.34 185.349 193.279 196.669 179.426 204.06C146.603 221.583 116.571 210.16 116.571 210.16L106.491 209.281" stroke="#9AA4B2" stroke-width="2" stroke-miterlimit="10" stroke-linecap="round" stroke-linejoin="round"/>
<path d="M145.31 201.424C145.31 201.424 150.324 199.77 157.457 198.994C164.591 198.219 176.273 197.805 175.342 189.897C174.412 182.04 156.165 184.831 150.893 182.454C146.292 180.386 137.66 173.925 126.288 176.509C121.895 177.491 117.346 177.491 113.004 176.406C112.952 176.406 112.952 176.406 112.901 176.354" stroke="#9AA4B2" stroke-width="2" stroke-miterlimit="10" stroke-linecap="round" stroke-linejoin="round"/>
<path d="M178.96 183.486C178.96 183.486 185.266 176.508 181.855 172.011C178.805 167.979 172.913 170.512 168.519 176.457C163.763 182.866 159.266 183.745 159.266 183.745" stroke="#9AA4B2" stroke-width="2" stroke-miterlimit="10" stroke-linecap="round" stroke-linejoin="round"/>
<path d="M39.3975 205.921C39.3975 205.921 82.817 215.432 110.523 213.571C113.573 213.365 116.26 211.452 117.449 208.609C119.775 202.872 123.084 192.068 121.791 178.06C121.378 173.563 117.915 169.997 113.417 169.532C107.732 168.911 99.0994 167.878 89.4333 166.275C64.2603 161.985 40.9998 180.438 39.3975 205.921Z" fill="#CDD5DF"/>
<path d="M104.165 168.445C107.732 168.911 110.833 169.272 113.418 169.531C117.915 169.996 121.378 173.563 121.791 178.06C123.084 192.016 119.775 202.871 117.449 208.557C116.26 211.4 113.573 213.312 110.523 213.519C107.266 213.726 103.855 213.829 100.237 213.726C100.237 213.777 112.849 190.775 104.165 168.445Z" fill="#E3E8EF"/>
<path d="M39.3975 205.921C39.3975 205.921 82.817 215.431 110.523 213.571C113.573 213.364 116.26 211.451 117.449 208.608C119.775 202.871 123.032 192.068 121.791 178.111C121.378 173.614 117.915 170.048 113.417 169.582M100.237 213.777C100.237 213.777 112.849 190.775 104.165 168.445" stroke="#9AA4B2" stroke-width="2" stroke-miterlimit="10" stroke-linecap="round" stroke-linejoin="round"/>
<path d="M111.35 206.127C112.235 206.127 112.952 205.409 112.952 204.524C112.952 203.639 112.235 202.922 111.35 202.922C110.465 202.922 109.748 203.639 109.748 204.524C109.748 205.409 110.465 206.127 111.35 206.127Z" stroke="#9AA4B2" stroke-width="2" stroke-miterlimit="10" stroke-linecap="round" stroke-linejoin="round"/>
<path d="M46.3239 169.221C46.3239 169.221 8.95205 112.052 46.3239 54.7793M16.3437 117.996C15.465 105.487 16.6022 90.4454 23.0117 75.4036M23.0117 148.597C23.0117 148.597 19.4968 140.378 17.4809 127.817M193.123 169.221C193.123 169.221 230.495 112.052 193.123 54.7793M220.829 88.7396C219.744 84.346 218.348 79.8489 216.436 75.4036M222.587 98.4573C226.102 125.956 216.384 148.597 216.384 148.597" stroke="#CDD5DF" stroke-width="2" stroke-miterlimit="10" stroke-linecap="round" stroke-linejoin="round"/>
<path d="M30.817 99.8014C33.5575 99.8014 35.7792 97.5797 35.7792 94.8392C35.7792 92.0986 33.5575 89.877 30.817 89.877C28.0764 89.877 25.8547 92.0986 25.8547 94.8392C25.8547 97.5797 28.0764 99.8014 30.817 99.8014Z" fill="#9AA4B2"/>
<path d="M16.6539 127.921C19.3945 127.921 21.6161 125.699 21.6161 122.958C21.6161 120.218 19.3945 117.996 16.6539 117.996C13.9133 117.996 11.6917 120.218 11.6917 122.958C11.6917 125.699 13.9133 127.921 16.6539 127.921Z" stroke="#CDD5DF" stroke-width="2" stroke-miterlimit="10" stroke-linecap="round" stroke-linejoin="round"/>
<path d="M221.346 98.612C224.087 98.612 226.308 96.3903 226.308 93.6497C226.308 90.9092 224.087 88.6875 221.346 88.6875C218.605 88.6875 216.384 90.9092 216.384 93.6497C216.384 96.3903 218.605 98.612 221.346 98.612Z" stroke="#CDD5DF" stroke-width="2" stroke-miterlimit="10" stroke-linecap="round" stroke-linejoin="round"/>
<path d="M203.565 150.354C206.305 150.354 208.527 148.132 208.527 145.392C208.527 142.651 206.305 140.43 203.565 140.43C200.824 140.43 198.603 142.651 198.603 145.392C198.603 148.132 200.824 150.354 203.565 150.354Z" fill="#9AA4B2"/>
</svg>
