<?xml version="1.0" encoding="UTF-8"?>
<!DOCTYPE svg PUBLIC "-//W3C//DTD SVG 1.1//EN" "http://www.w3.org/Graphics/SVG/1.1/DTD/svg11.dtd">
<!-- Creator: CorelDRAW -->
<svg xmlns="http://www.w3.org/2000/svg" xml:space="preserve" width="5.82677in" height="8.26772in" version="1.1" style="shape-rendering:geometricPrecision; text-rendering:geometricPrecision; image-rendering:optimizeQuality; fill-rule:evenodd; clip-rule:evenodd"
viewBox="0 0 5826.77 8267.72"
 xmlns:xlink="http://www.w3.org/1999/xlink"
 xmlns:xodm="http://www.corel.com/coreldraw/odm/2003">
 <defs>
  <style type="text/css">
   <![CDATA[
    .str0 {stroke:#9AA4B2;stroke-width:6.42;stroke-miterlimit:2.61313}
    .fil6 {fill:none}
    .fil9 {fill:none;fill-rule:nonzero}
    .fil0 {fill:#121926}
    .fil1 {fill:white}
    .fil3 {fill:#00B5E2;fill-rule:nonzero}
    .fil8 {fill:#364152;fill-rule:nonzero}
    .fil4 {fill:#509E2F;fill-rule:nonzero}
    .fil2 {fill:#EF3340;fill-rule:nonzero}
    .fil5 {fill:#F0F0F0;fill-rule:nonzero}
    .fil7 {fill:white;fill-rule:nonzero}
   ]]>
  </style>
     <clipPath id="id0">
      <path d="M2109.74 3999.83l157.47 0c10.87,0 19.69,8.81 19.69,19.69l-0 78.73c0,10.87 -8.81,19.69 -19.68,19.69l-157.47 -0c-10.86,0 -19.68,-8.81 -19.68,-19.68l0 -78.73c0,-10.87 8.82,-19.69 19.69,-19.69z"/>
     </clipPath>
 </defs>
 <g id="Layer_x0020_1">
  <metadata id="CorelCorpID_0Corel-Layer"/>
  <g id="_3136969320400">
   <rect class="fil0" x="1987.71" y="3906.71" width="1844.78" height="459.9" rx="36.17" ry="36.17"/>
   <rect class="fil1" x="2040.94" y="3946.37" width="1738.34" height="380.58" rx="9.71" ry="8.53"/>
   <g id="registrationMarks_icons.svg">
    <g>
    </g>
    <g style="clip-path:url(#id0)">
     <g>
      <polygon class="fil2" points="2286.89,3993.27 2090.06,3993.27 2090.06,4124.49 2286.89,4124.49 "/>
      <polygon class="fil3" points="2286.89,3993.27 2090.06,3993.27 2090.06,4037.01 2286.89,4037.01 "/>
      <polygon class="fil4" points="2286.89,4080.75 2090.06,4080.75 2090.06,4124.49 2286.89,4124.49 "/>
      <path class="fil5" d="M2189.7 4074.87c-8.83,0 -15.99,-7.16 -15.99,-15.99 0,-8.83 7.16,-15.99 15.99,-15.99 2.76,0 5.35,0.7 7.61,1.92 -3.55,-3.47 -8.4,-5.61 -13.76,-5.61 -10.87,0 -19.69,8.81 -19.69,19.68 0,10.87 8.81,19.68 19.69,19.68 5.35,0 10.21,-2.14 13.76,-5.61 -2.26,1.22 -4.85,1.92 -7.61,1.92z"/>
      <polygon class="fil5" points="2202,4047.81 2204.12,4053.76 2209.83,4051.05 2207.12,4056.76 2213.07,4058.88 2207.12,4061 2209.83,4066.7 2204.12,4063.99 2202,4069.95 2199.89,4063.99 2194.17,4066.7 2196.89,4061 2190.93,4058.88 2196.89,4056.76 2194.17,4051.05 2199.89,4053.76 "/>
     </g>
    </g>
    <path class="fil6" d="M2109.74 3999.83l157.47 0c10.87,0 19.69,8.81 19.69,19.69l-0 78.73c0,10.87 -8.81,19.69 -19.68,19.69l-157.47 -0c-10.86,0 -19.68,-8.81 -19.68,-19.68l0 -78.73c0,-10.87 8.82,-19.69 19.69,-19.69z"/>
    <path class="fil7" d="M2113.76 4147.56l149.43 0c9.81,-0 17.78,7.96 17.78,17.78l-0 90.38c0,9.81 -7.96,17.78 -17.78,17.78l-149.43 0c-9.81,-0 -17.78,-7.97 -17.78,-17.78l0 -90.37c0,-9.82 7.96,-17.78 17.78,-17.78z"/>
    <path class="fil8" d="M2182.5 4240.15l12.19 0 -25.65 -59.26 -11.77 0 -25.99 59.26 11.77 0 5.25 -12.53 28.95 0 5.25 12.53zm-30.14 -22.27l10.5 -24.89 10.33 24.89 -20.83 0z"/>
    <polygon class="fil8" points="2196.14,4180.89 2196.05,4190.8 2229.91,4190.8 2195.04,4232.11 2195.04,4240.15 2245.66,4240.15 2245.66,4230.25 2210.36,4230.25 2245.24,4188.85 2245.24,4180.89 "/>
    <path class="fil9 str0" d="M2113.76 4147.56l149.43 0c9.81,-0 17.78,7.96 17.78,17.78l-0 90.38c0,9.81 -7.96,17.78 -17.78,17.78l-149.43 0c-9.81,-0 -17.78,-7.97 -17.78,-17.78l0 -90.37c0,-9.82 7.96,-17.78 17.78,-17.78z"/>
   </g>
  </g>
 </g>
</svg>
