<svg width="476" height="303" viewBox="0 0 476 303" fill="none" xmlns="http://www.w3.org/2000/svg">
<path d="M76.5771 136.69C74.3643 134.899 71.6038 133.922 68.7571 133.922C65.9104 133.922 63.1499 134.899 60.9371 136.69C45.1371 149.54 26.1271 174.76 28.3871 204.05C29.0099 211.036 30.6227 217.898 33.1771 224.43C33.3467 224.906 33.561 225.365 33.8171 225.8C50.4571 256.92 87.0571 256.92 103.647 225.8C103.857 225.38 104.067 224.9 104.277 224.43C106.891 217.916 108.509 211.046 109.077 204.05C111.447 174.71 92.4271 149.54 76.5771 136.69Z" fill="#FFBF73"/>
<g opacity="0.43">
<path opacity="0.43" d="M89.6949 230.54C71.2549 230.54 56.3549 207.21 56.3549 178.4C56.3549 159.81 62.5649 143.53 71.9449 134.26C70.0554 133.747 68.0706 133.695 66.1567 134.107C64.2428 134.52 62.4556 135.385 60.9449 136.63C45.1449 149.48 26.1349 174.71 28.3949 203.99C29.0163 210.981 30.6326 217.846 33.1949 224.38C33.3633 224.852 33.5741 225.307 33.8249 225.74C50.4649 256.87 87.0749 256.87 103.665 225.74H103.715C99.6718 228.792 94.7601 230.474 89.6949 230.54Z" fill="#FFBF73"/>
</g>
<path d="M68.8376 301.8C68.5606 301.8 68.2862 301.745 68.0302 301.639C67.7742 301.533 67.5416 301.378 67.3456 301.182C67.1497 300.986 66.9943 300.754 66.8883 300.498C66.7822 300.242 66.7277 299.967 66.7277 299.69V187.51C66.7078 187.221 66.7474 186.932 66.8442 186.659C66.9409 186.386 67.0928 186.137 67.2902 185.925C67.4876 185.714 67.7264 185.545 67.9918 185.43C68.2571 185.314 68.5433 185.255 68.8326 185.255C69.122 185.255 69.4082 185.314 69.6735 185.43C69.9389 185.545 70.1777 185.714 70.3751 185.925C70.5725 186.137 70.7243 186.386 70.8211 186.659C70.9179 186.932 70.9576 187.221 70.9376 187.51V299.69C70.9377 300.248 70.7167 300.783 70.3232 301.179C69.9296 301.574 69.3955 301.797 68.8376 301.8Z" fill="#135677"/>
<path d="M17.6953 301.22C18.0407 293.503 21.3491 286.217 26.9318 280.879C32.5144 275.541 39.941 272.561 47.6653 272.561C55.3896 272.561 62.8162 275.541 68.3989 280.879C73.9815 286.217 77.29 293.503 77.6353 301.22" fill="#FFBF73"/>
<g opacity="0.43">
<path opacity="0.43" d="M55.8358 272.41C53.1832 271.644 50.4366 271.254 47.6758 271.25C39.7193 271.25 32.0887 274.411 26.4626 280.037C20.8365 285.663 17.6758 293.293 17.6758 301.25H34.0558C34.0319 294.722 36.1492 288.367 40.0832 283.158C44.0171 277.949 49.5507 274.173 55.8358 272.41Z" fill="#FFBF73"/>
</g>
<path d="M116.497 262.93C115.497 254.4 116.927 235.44 121.087 222.85C123.817 214.58 126.347 203.26 137.617 196.99C146.887 191.77 206.927 187.51 240.527 190.93C259.277 192.83 274.817 211.21 284.527 226.48C316.447 232.33 317.237 232.33 324.717 234.65C332.197 236.97 339.517 242.65 339.517 251.24V272.14H117.397C117.077 266.88 116.837 268.14 116.497 262.93Z" fill="#F81734"/>
<g opacity="0.49">
<path opacity="0.49" d="M325.218 233.01C317.738 230.75 316.948 230.75 285.038 224.85C275.348 209.58 259.808 191.2 241.038 189.3C207.438 185.88 147.398 190.14 138.128 195.36C135.788 196.687 133.644 198.332 131.758 200.25L131.808 200.2C141.078 194.99 201.118 190.72 234.718 194.14C252.358 195.94 268.428 212.37 278.278 227.01C278.85 227.861 279.587 228.588 280.446 229.148C281.305 229.709 282.268 230.09 283.278 230.27C311.878 235.54 311.558 235.59 318.828 237.81C326.308 240.07 333.628 245.81 333.628 254.4V270.4H339.948V249.5C340.018 241.02 332.698 235.28 325.218 233.01Z" fill="#4DCBAB"/>
</g>
<g opacity="0.21">
<path opacity="0.21" d="M237.317 271.41C237.109 271.407 236.909 271.323 236.762 271.176C236.614 271.028 236.53 270.829 236.527 270.62V223.69C236.527 223.481 236.611 223.28 236.759 223.131C236.907 222.983 237.108 222.9 237.317 222.9C237.527 222.9 237.728 222.983 237.876 223.131C238.024 223.28 238.107 223.481 238.107 223.69V270.62C238.107 270.83 238.024 271.03 237.876 271.179C237.728 271.327 237.527 271.41 237.317 271.41Z" fill="#72757C"/>
</g>
<g opacity="0.21">
<path opacity="0.21" d="M162.376 271.41C162.272 271.407 162.17 271.384 162.075 271.342C161.98 271.3 161.894 271.24 161.823 271.165C161.751 271.089 161.695 271.001 161.658 270.904C161.621 270.807 161.603 270.704 161.606 270.6L162.836 223.67C162.841 223.464 162.926 223.268 163.074 223.124C163.222 222.98 163.42 222.9 163.626 222.9C163.834 222.908 164.032 222.997 164.176 223.148C164.32 223.3 164.398 223.501 164.396 223.71L163.186 270.64C163.183 270.744 163.16 270.846 163.118 270.941C163.076 271.036 163.016 271.121 162.94 271.193C162.865 271.264 162.776 271.32 162.68 271.358C162.583 271.395 162.48 271.413 162.376 271.41Z" fill="#72757C"/>
</g>
<g opacity="0.2">
<path opacity="0.2" d="M137.148 222.85C139.888 214.58 142.418 203.26 153.688 196.99C160.058 193.41 190.288 190.3 219.518 189.77C186.338 189.14 145.208 192.72 137.618 196.99C126.348 203.28 123.838 214.58 121.088 222.85C116.928 235.44 115.558 254.4 116.498 262.93C116.818 268.14 117.078 266.93 117.398 272.14H133.458C133.148 266.88 132.878 268.14 132.568 262.93C131.568 254.4 132.988 235.44 137.148 222.85Z" fill="#72757C"/>
</g>
<path d="M339.497 274.2H117.397C116.857 274.201 116.337 273.993 115.946 273.621C115.555 273.248 115.322 272.739 115.297 272.2C115.137 269.68 115.007 268.77 114.867 267.8C114.727 266.83 114.567 265.75 114.397 263.09C113.317 253.7 114.967 234.62 119.087 222.17C119.357 221.33 119.637 220.46 119.917 219.57C122.517 211.37 125.747 201.16 136.597 195.13C147.067 189.24 208.387 185.52 240.747 188.82C259.537 190.73 274.837 208.13 284.367 222.4C284.826 223.081 285.416 223.663 286.103 224.113C286.79 224.562 287.559 224.871 288.367 225.02L295.067 226.24C317.237 230.3 318.567 230.55 325.277 232.55C329.447 233.773 333.257 235.994 336.377 239.02C338.009 240.594 339.311 242.479 340.204 244.564C341.097 246.649 341.564 248.892 341.577 251.16V272.07C341.581 272.347 341.53 272.621 341.427 272.878C341.325 273.135 341.173 273.369 340.979 273.567C340.786 273.765 340.556 273.923 340.301 274.032C340.047 274.14 339.773 274.197 339.497 274.2ZM119.357 269.99H337.357V251.18C337.357 243.4 330.187 238.47 324.057 236.61C317.567 234.67 316.257 234.43 294.297 230.41L287.627 229.19C286.258 228.945 284.952 228.428 283.786 227.671C282.62 226.913 281.617 225.931 280.837 224.78C271.837 211.25 257.437 194.78 240.277 193.03C225.047 191.48 202.527 191.4 180.047 192.82C159.307 194.14 142.657 196.55 138.617 198.82C129.217 204.04 126.387 212.97 123.897 220.82C123.607 221.73 123.327 222.62 123.047 223.47C118.887 236.04 117.627 254.76 118.557 262.64C118.552 262.68 118.552 262.72 118.557 262.76C118.619 264.233 118.763 265.702 118.987 267.16C119.137 267.92 119.247 268.66 119.357 269.99Z" fill="#135677"/>
<path d="M237.366 226.64C233.476 214.05 226.736 203.1 221.836 196.2C228.626 196.46 234.636 196.94 239.836 197.52C255.426 199.36 268.276 214.11 276.836 227.27L237.366 226.64Z" fill="#FFC88D"/>
<g opacity="0.2">
<path opacity="0.2" d="M245.327 216.21C244.67 215.026 244.349 213.685 244.399 212.332C244.449 210.979 244.868 209.665 245.61 208.533C246.352 207.4 247.39 206.492 248.611 205.907C249.832 205.321 251.189 205.08 252.537 205.21C253.647 205.32 254.697 205.43 255.757 205.58C256.642 205.687 257.521 205.847 258.387 206.06C252.807 201.58 246.537 198.37 239.797 197.58C234.637 196.95 228.577 196.52 221.797 196.26C226.697 203.16 233.437 214.12 237.327 226.7L250.447 226.91C248.938 223.252 247.229 219.68 245.327 216.21Z" fill="#FFBF73"/>
</g>
<path d="M276.835 229.38L237.385 228.75C236.937 228.745 236.502 228.598 236.143 228.33C235.784 228.062 235.519 227.688 235.385 227.26C231.585 214.99 225.005 204.26 220.145 197.42C219.921 197.098 219.791 196.72 219.769 196.328C219.747 195.936 219.834 195.546 220.021 195.201C220.207 194.856 220.486 194.569 220.826 194.373C221.166 194.177 221.553 194.079 221.945 194.09C228.315 194.34 234.405 194.79 240.055 195.42C253.395 197 266.355 207.33 278.615 226.12C278.823 226.439 278.94 226.809 278.955 227.189C278.969 227.57 278.881 227.947 278.698 228.281C278.516 228.615 278.246 228.894 277.918 229.087C277.59 229.281 277.216 229.382 276.835 229.38ZM238.935 224.56L272.835 225.1C264.835 213.7 253.195 201.22 239.565 199.61C235.285 199.13 230.725 198.76 225.985 198.5C231.415 206.585 235.762 215.346 238.915 224.56H238.935Z" fill="#135677"/>
<path d="M168.836 226.11L171.106 198.11C183.376 197.22 196.916 196.8 209.346 196.85C210.656 196.85 211.976 196.85 213.236 196.9C217.976 202.8 225.776 213.7 230.356 226.5L168.836 226.11Z" fill="#FFC88D"/>
<g opacity="0.2">
<path opacity="0.2" d="M178.388 212.28C178.758 207.44 183.178 203.59 188.708 203.28C197.818 202.8 207.248 202.59 216.148 202.64H217.618C216.038 200.38 214.618 198.43 213.248 196.85C211.938 196.85 210.668 196.8 209.358 196.8C196.928 196.75 183.358 197.17 171.118 198.06L168.848 226.06L177.278 226.11L178.388 212.28Z" fill="#FFBF73"/>
</g>
<path d="M230.367 228.59L168.837 228.22C168.548 228.218 168.262 228.157 167.997 228.04C167.732 227.923 167.494 227.753 167.297 227.54C167.103 227.324 166.955 227.071 166.86 226.796C166.766 226.521 166.727 226.23 166.747 225.94L169.017 197.94C169.059 197.439 169.278 196.969 169.636 196.615C169.993 196.261 170.466 196.046 170.967 196.01C182.967 195.14 196.567 194.69 209.357 194.74C210.677 194.74 212.027 194.74 213.357 194.8C213.658 194.812 213.952 194.888 214.221 195.022C214.49 195.157 214.728 195.347 214.917 195.58C219.387 201.15 227.607 212.48 232.367 225.79C232.484 226.109 232.521 226.452 232.476 226.789C232.431 227.127 232.304 227.448 232.108 227.725C231.911 228.002 231.65 228.228 231.347 228.382C231.044 228.536 230.707 228.614 230.367 228.61V228.59ZM171.137 224.02L227.307 224.36C223.462 215.241 218.381 206.694 212.207 198.96C211.267 198.96 210.297 198.96 209.357 198.96C197.287 198.9 184.487 199.31 173.067 200.09L171.137 224.02Z" fill="#135677"/>
<path d="M153.995 279.04H115.345C112.832 279.035 110.423 278.035 108.644 276.258C106.866 274.482 105.863 272.074 105.855 269.56C105.866 267.047 106.87 264.641 108.647 262.865C110.425 261.089 112.833 260.088 115.345 260.08H153.995V279.04Z" fill="white"/>
<g opacity="0.2">
<path opacity="0.2" d="M117.135 272.09C117.143 269.578 118.144 267.172 119.92 265.395C121.696 263.619 124.103 262.618 126.615 262.61H153.945V260.14H115.285C112.773 260.148 110.366 261.149 108.59 262.925C106.814 264.702 105.813 267.108 105.805 269.62C105.813 272.132 106.814 274.539 108.59 276.315C110.366 278.091 112.773 279.092 115.285 279.1H120.235C119.263 278.208 118.486 277.125 117.953 275.919C117.42 274.712 117.141 273.409 117.135 272.09Z" fill="#72757C"/>
</g>
<path d="M153.996 281.15H115.336C112.322 281.061 109.461 279.802 107.361 277.639C105.261 275.476 104.086 272.58 104.086 269.565C104.086 266.55 105.261 263.654 107.361 261.491C109.461 259.328 112.322 258.069 115.336 257.98H153.996C154.272 257.979 154.546 258.032 154.802 258.137C155.058 258.242 155.291 258.396 155.487 258.592C155.683 258.787 155.839 259.019 155.945 259.274C156.051 259.529 156.106 259.803 156.106 260.08V279.08C156.098 279.633 155.872 280.161 155.476 280.549C155.081 280.937 154.549 281.153 153.996 281.15ZM115.336 262.15C113.427 262.22 111.619 263.028 110.294 264.403C108.968 265.779 108.227 267.615 108.227 269.525C108.227 271.435 108.968 273.271 110.294 274.647C111.619 276.022 113.427 276.83 115.336 276.9H151.896V262.19L115.336 262.15Z" fill="#135677"/>
<path d="M341.074 279.04H309.414V263.28H341.074C342.112 263.279 343.14 263.482 344.099 263.879C345.058 264.275 345.929 264.857 346.663 265.591C347.397 266.325 347.979 267.196 348.375 268.155C348.772 269.114 348.975 270.142 348.974 271.18C348.971 272.215 348.765 273.239 348.367 274.194C347.968 275.149 347.386 276.016 346.652 276.746C345.918 277.476 345.048 278.054 344.091 278.448C343.134 278.841 342.109 279.043 341.074 279.04Z" fill="white"/>
<g opacity="0.2">
<path opacity="0.2" d="M311.477 269.35H343.177C344.264 269.36 345.338 269.59 346.334 270.024C347.331 270.459 348.229 271.09 348.977 271.88C348.977 271.62 349.027 271.41 349.027 271.14C349.028 270.102 348.824 269.074 348.428 268.115C348.031 267.156 347.449 266.285 346.716 265.551C345.982 264.817 345.11 264.235 344.151 263.839C343.192 263.442 342.164 263.239 341.127 263.24H309.477V279.04H311.577V269.35H311.477Z" fill="#72757C"/>
</g>
<path d="M341.076 281.15H309.416C309.14 281.15 308.866 281.095 308.61 280.989C308.355 280.883 308.123 280.727 307.928 280.531C307.733 280.335 307.578 280.103 307.473 279.847C307.368 279.591 307.315 279.317 307.316 279.04V263.28C307.316 262.723 307.538 262.189 307.932 261.795C308.325 261.401 308.86 261.18 309.416 261.18H341.076C343.729 261.18 346.272 262.234 348.148 264.109C350.023 265.984 351.076 268.528 351.076 271.18C351.076 273.832 350.023 276.376 348.148 278.251C346.272 280.126 343.729 281.18 341.076 281.18V281.15ZM311.526 276.94H341.076C342.572 276.878 343.985 276.24 345.021 275.16C346.057 274.08 346.636 272.642 346.636 271.145C346.636 269.648 346.057 268.21 345.021 267.13C343.985 266.05 342.572 265.412 341.076 265.35H311.526V276.94Z" fill="#135677"/>
<path d="M269.137 270.62H171.438V279.05H269.137V270.62Z" fill="white"/>
<g opacity="0.2">
<path opacity="0.2" d="M269.137 270.62H171.438V274.83H269.137V270.62Z" fill="#72757C"/>
</g>
<path d="M269.124 281.15H171.434C171.157 281.151 170.882 281.098 170.625 280.992C170.369 280.887 170.135 280.731 169.939 280.535C169.743 280.339 169.588 280.106 169.482 279.849C169.377 279.592 169.323 279.317 169.324 279.04V270.62C169.323 270.343 169.377 270.068 169.482 269.811C169.588 269.554 169.743 269.321 169.939 269.125C170.135 268.929 170.369 268.773 170.625 268.668C170.882 268.562 171.157 268.509 171.434 268.51H269.124C269.402 268.509 269.677 268.562 269.933 268.668C270.19 268.773 270.423 268.929 270.619 269.125C270.815 269.321 270.971 269.554 271.076 269.811C271.182 270.068 271.236 270.343 271.234 270.62V279.04C271.236 279.317 271.182 279.592 271.076 279.849C270.971 280.106 270.815 280.339 270.619 280.535C270.423 280.731 270.19 280.887 269.933 280.992C269.677 281.098 269.402 281.151 269.124 281.15ZM173.534 276.94H267.024V272.72H173.534V276.94Z" fill="#135677"/>
<path d="M292.776 300.53C305.721 300.53 316.216 290.036 316.216 277.09C316.216 264.144 305.721 253.65 292.776 253.65C279.83 253.65 269.336 264.144 269.336 277.09C269.336 290.036 279.83 300.53 292.776 300.53Z" fill="#82818C"/>
<path d="M292.775 302.64C287.721 302.642 282.779 301.145 278.576 298.338C274.373 295.532 271.097 291.541 269.162 286.872C267.227 282.203 266.72 277.065 267.705 272.108C268.691 267.151 271.124 262.597 274.698 259.023C278.272 255.45 282.826 253.016 287.783 252.03C292.74 251.045 297.878 251.552 302.547 253.487C307.216 255.422 311.206 258.698 314.013 262.901C316.82 267.105 318.317 272.046 318.315 277.1C318.307 283.871 315.614 290.363 310.826 295.151C306.038 299.939 299.546 302.632 292.775 302.64ZM292.775 255.76C288.554 255.758 284.427 257.008 280.916 259.352C277.406 261.695 274.669 265.027 273.052 268.927C271.435 272.826 271.011 277.117 271.834 281.257C272.656 285.397 274.688 289.201 277.672 292.186C280.656 295.172 284.458 297.205 288.598 298.029C292.738 298.853 297.029 298.431 300.929 296.817C304.829 295.202 308.162 292.466 310.508 288.957C312.853 285.447 314.105 281.321 314.105 277.1C314.1 271.444 311.851 266.02 307.852 262.02C303.853 258.019 298.431 255.768 292.775 255.76Z" fill="#135677"/>
<path d="M292.776 289.78C299.784 289.78 305.466 284.099 305.466 277.09C305.466 270.082 299.784 264.4 292.776 264.4C285.767 264.4 280.086 270.082 280.086 277.09C280.086 284.099 285.767 289.78 292.776 289.78Z" fill="white"/>
<path d="M292.777 291.89C289.849 291.89 286.987 291.022 284.553 289.395C282.119 287.768 280.222 285.456 279.102 282.751C277.982 280.046 277.69 277.07 278.262 274.199C278.834 271.328 280.244 268.691 282.315 266.621C284.386 264.552 287.024 263.143 289.895 262.573C292.767 262.003 295.743 262.298 298.447 263.419C301.151 264.541 303.462 266.44 305.087 268.875C306.712 271.31 307.579 274.172 307.577 277.1C307.571 281.023 306.01 284.783 303.235 287.556C300.461 290.329 296.699 291.887 292.777 291.89ZM292.777 266.51C290.682 266.51 288.635 267.131 286.893 268.295C285.152 269.458 283.794 271.112 282.993 273.047C282.191 274.982 281.981 277.112 282.39 279.166C282.799 281.22 283.807 283.107 285.288 284.588C286.769 286.069 288.656 287.078 290.711 287.486C292.765 287.895 294.894 287.685 296.829 286.884C298.764 286.082 300.418 284.725 301.582 282.983C302.745 281.242 303.367 279.194 303.367 277.1C303.364 274.292 302.247 271.6 300.262 269.615C298.276 267.629 295.584 266.513 292.777 266.51Z" fill="#135677"/>
<path d="M292.777 283.1C291.591 283.1 290.431 282.748 289.444 282.089C288.457 281.429 287.688 280.492 287.234 279.396C286.78 278.3 286.661 277.093 286.893 275.929C287.124 274.766 287.696 273.696 288.535 272.857C289.374 272.018 290.443 271.447 291.607 271.215C292.771 270.984 293.977 271.103 295.073 271.557C296.17 272.011 297.107 272.78 297.766 273.767C298.425 274.753 298.777 275.913 298.777 277.1C298.777 278.691 298.145 280.217 297.02 281.343C295.895 282.468 294.369 283.1 292.777 283.1ZM292.777 275.3C292.421 275.298 292.072 275.402 291.775 275.598C291.477 275.795 291.245 276.075 291.107 276.404C290.969 276.733 290.932 277.095 291.001 277.445C291.069 277.795 291.24 278.116 291.491 278.369C291.742 278.622 292.063 278.794 292.412 278.865C292.762 278.935 293.124 278.9 293.454 278.764C293.783 278.628 294.065 278.397 294.263 278.101C294.462 277.805 294.567 277.456 294.567 277.1C294.57 276.863 294.526 276.627 294.437 276.407C294.348 276.187 294.217 275.987 294.051 275.818C293.884 275.649 293.686 275.514 293.468 275.422C293.249 275.329 293.015 275.281 292.777 275.28V275.3Z" fill="#135677"/>
<path d="M156.948 300.53C169.893 300.53 180.388 290.036 180.388 277.09C180.388 264.144 169.893 253.65 156.948 253.65C144.002 253.65 133.508 264.144 133.508 277.09C133.508 290.036 144.002 300.53 156.948 300.53Z" fill="#82818C"/>
<path d="M156.945 302.64C151.891 302.64 146.951 301.141 142.749 298.333C138.547 295.525 135.272 291.535 133.338 286.865C131.405 282.196 130.9 277.058 131.886 272.102C132.873 267.145 135.307 262.593 138.882 259.02C142.456 255.447 147.009 253.014 151.966 252.03C156.923 251.045 162.061 251.552 166.729 253.488C171.398 255.423 175.387 258.7 178.193 262.903C181 267.105 182.497 272.046 182.495 277.1C182.487 283.873 179.792 290.366 175.002 295.154C170.212 299.943 163.717 302.635 156.945 302.64ZM156.945 255.76C152.723 255.758 148.597 257.008 145.086 259.352C141.575 261.695 138.839 265.027 137.222 268.927C135.605 272.826 135.181 277.117 136.003 281.257C136.826 285.397 138.857 289.201 141.841 292.186C144.825 295.172 148.628 297.205 152.768 298.029C156.907 298.853 161.199 298.431 165.099 296.817C168.999 295.202 172.332 292.467 174.677 288.957C177.023 285.447 178.275 281.321 178.275 277.1C178.269 271.444 176.021 266.02 172.022 262.02C168.023 258.019 162.601 255.768 156.945 255.76Z" fill="#135677"/>
<path d="M156.948 289.78C163.956 289.78 169.638 284.099 169.638 277.09C169.638 270.082 163.956 264.4 156.948 264.4C149.939 264.4 144.258 270.082 144.258 277.09C144.258 284.099 149.939 289.78 156.948 289.78Z" fill="white"/>
<path d="M156.945 291.89C154.017 291.89 151.155 291.022 148.721 289.395C146.287 287.768 144.39 285.456 143.27 282.751C142.15 280.046 141.858 277.07 142.43 274.199C143.002 271.328 144.412 268.691 146.483 266.621C148.554 264.552 151.192 263.143 154.063 262.573C156.935 262.003 159.911 262.298 162.615 263.419C165.319 264.541 167.63 266.44 169.255 268.875C170.88 271.31 171.747 274.172 171.745 277.1C171.739 281.023 170.178 284.783 167.403 287.556C164.629 290.329 160.867 291.887 156.945 291.89ZM156.945 266.51C154.85 266.51 152.803 267.131 151.061 268.295C149.32 269.458 147.962 271.112 147.161 273.047C146.359 274.982 146.149 277.112 146.558 279.166C146.967 281.22 147.975 283.107 149.456 284.588C150.937 286.069 152.824 287.078 154.879 287.486C156.933 287.895 159.062 287.685 160.997 286.884C162.932 286.082 164.586 284.725 165.75 282.983C166.913 281.242 167.535 279.194 167.535 277.1C167.535 274.291 166.419 271.598 164.433 269.612C162.447 267.626 159.753 266.51 156.945 266.51Z" fill="#135677"/>
<path d="M156.945 283.1C155.759 283.1 154.599 282.748 153.612 282.089C152.625 281.429 151.856 280.492 151.402 279.396C150.948 278.3 150.829 277.093 151.061 275.929C151.292 274.766 151.864 273.696 152.703 272.857C153.542 272.018 154.611 271.447 155.775 271.215C156.939 270.984 158.145 271.103 159.241 271.557C160.338 272.011 161.275 272.78 161.934 273.767C162.593 274.753 162.945 275.913 162.945 277.1C162.945 278.691 162.313 280.217 161.188 281.343C160.063 282.468 158.537 283.1 156.945 283.1ZM156.945 275.3C156.589 275.298 156.24 275.402 155.943 275.598C155.645 275.795 155.413 276.075 155.275 276.404C155.137 276.733 155.1 277.095 155.169 277.445C155.237 277.795 155.408 278.116 155.659 278.369C155.91 278.622 156.231 278.794 156.58 278.865C156.93 278.935 157.292 278.9 157.622 278.764C157.951 278.628 158.233 278.397 158.431 278.101C158.63 277.805 158.735 277.456 158.735 277.1C158.738 276.863 158.694 276.627 158.605 276.407C158.516 276.187 158.385 275.987 158.219 275.818C158.052 275.649 157.854 275.514 157.636 275.422C157.417 275.329 157.183 275.281 156.945 275.28V275.3Z" fill="#135677"/>
<path d="M164.535 197.57C150.535 199.04 143.415 200.89 141.305 202.15C133.035 207.21 130.505 215.74 128.305 223.27C128.045 224.11 127.835 224.9 127.565 225.69C127.523 225.908 127.452 226.12 127.355 226.32H162.595L164.535 197.57Z" fill="#FFC88D"/>
<g opacity="0.2">
<path opacity="0.2" d="M136.355 226.01C138.565 218.48 141.045 209.94 149.355 204.89C150.985 203.89 155.725 202.57 164.355 201.36L164.615 197.57C150.615 199.04 143.495 200.89 141.385 202.15C133.115 207.21 130.595 215.74 128.385 223.27C128.125 224.11 127.915 224.9 127.655 225.69C127.603 225.906 127.533 226.116 127.445 226.32H136.235C136.305 226.22 136.305 226.11 136.355 226.01Z" fill="#FFBF73"/>
</g>
<path d="M162.587 228.43H127.347C126.995 228.425 126.65 228.331 126.343 228.158C126.037 227.986 125.778 227.739 125.592 227.441C125.405 227.143 125.295 226.802 125.274 226.451C125.252 226.1 125.318 225.749 125.467 225.43C125.467 225.38 125.467 225.3 125.517 225.23C125.529 225.179 125.545 225.128 125.567 225.08C125.707 224.64 125.837 224.2 125.967 223.75C126.097 223.3 126.177 223.05 126.287 222.69C128.477 215.23 131.217 205.9 140.207 200.4C143.207 198.6 151.997 196.82 164.307 195.52C164.613 195.49 164.923 195.526 165.215 195.626C165.506 195.726 165.773 195.888 165.997 196.1C166.218 196.313 166.389 196.573 166.5 196.859C166.611 197.146 166.657 197.453 166.637 197.76L164.687 226.52C164.637 227.043 164.394 227.528 164.006 227.881C163.617 228.234 163.111 228.43 162.587 228.43ZM130.207 224.22H160.617L162.257 199.94C146.437 201.76 142.767 203.73 142.387 203.94C134.807 208.58 132.387 216.69 130.317 223.84C130.277 223.99 130.247 224.1 130.207 224.22Z" fill="#135677"/>
<path d="M343.755 246.92C344.335 250.5 341.015 253.45 335.755 253.92C330.755 254.4 325.005 252.18 324.055 248.6C323.475 245.02 329.485 241.81 334.535 241.33C339.585 240.85 343.075 243.34 343.755 246.92Z" fill="white"/>
<path d="M334.385 256.09C329.065 256.09 323.215 253.64 322.025 249.14C322.025 249.07 322.025 249.01 321.975 248.94C321.867 248.15 321.924 247.346 322.145 246.58C322.365 245.813 322.743 245.102 323.255 244.49C325.665 241.37 330.695 239.58 334.345 239.24C340.185 238.68 344.895 241.68 345.825 246.52C345.825 246.52 345.825 246.52 345.825 246.58C345.986 247.535 345.944 248.513 345.701 249.451C345.458 250.388 345.02 251.264 344.415 252.02C342.665 254.26 339.655 255.68 335.935 256.02C335.435 256.07 334.905 256.09 334.385 256.09ZM326.125 248.18C326.855 250.42 331.455 252.18 335.555 251.82C338.075 251.6 340.095 250.73 341.095 249.43C341.341 249.134 341.521 248.79 341.622 248.419C341.724 248.048 341.746 247.66 341.685 247.28C341.155 244.63 338.375 243.09 334.685 243.43C331.455 243.73 327.875 245.33 326.535 247.07C326.277 247.383 326.133 247.774 326.125 248.18Z" fill="#135677"/>
<path d="M252.595 237.91H242.595C242.306 237.93 242.017 237.89 241.744 237.793C241.471 237.697 241.222 237.545 241.01 237.347C240.799 237.15 240.63 236.911 240.515 236.646C240.399 236.381 240.34 236.094 240.34 235.805C240.34 235.516 240.399 235.229 240.515 234.964C240.63 234.699 240.799 234.46 241.01 234.263C241.222 234.065 241.471 233.913 241.744 233.817C242.017 233.72 242.306 233.68 242.595 233.7H252.595C253.128 233.737 253.628 233.975 253.992 234.365C254.357 234.756 254.56 235.271 254.56 235.805C254.56 236.339 254.357 236.854 253.992 237.245C253.628 237.635 253.128 237.873 252.595 237.91Z" fill="#135677"/>
<path d="M180.438 237.91H169.908C169.619 237.93 169.329 237.89 169.057 237.793C168.784 237.697 168.534 237.545 168.323 237.347C168.111 237.15 167.942 236.911 167.827 236.646C167.712 236.381 167.652 236.094 167.652 235.805C167.652 235.516 167.712 235.229 167.827 234.964C167.942 234.699 168.111 234.46 168.323 234.263C168.534 234.065 168.784 233.913 169.057 233.817C169.329 233.72 169.619 233.68 169.908 233.7H180.438C180.726 233.68 181.016 233.72 181.288 233.817C181.561 233.913 181.811 234.065 182.022 234.263C182.234 234.46 182.403 234.699 182.518 234.964C182.633 235.229 182.693 235.516 182.693 235.805C182.693 236.094 182.633 236.381 182.518 236.646C182.403 236.911 182.234 237.15 182.022 237.347C181.811 237.545 181.561 237.697 181.288 237.793C181.016 237.89 180.726 237.93 180.438 237.91Z" fill="#135677"/>
<path d="M78.4778 181.2H78.0378C77.7059 181.185 77.3871 181.066 77.1268 180.86C76.8664 180.653 76.6778 180.37 76.5878 180.05C76.1288 178.486 76.0714 176.831 76.4209 175.239C76.7705 173.647 77.5157 172.168 78.5878 170.94C79.5561 169.843 80.7569 168.976 82.1028 168.401C83.4487 167.827 84.9057 167.56 86.3678 167.62C86.7001 167.633 87.0196 167.752 87.2802 167.959C87.5408 168.165 87.7291 168.449 87.8178 168.77C88.2501 170.218 88.3376 171.747 88.0731 173.234C87.8087 174.722 87.1997 176.127 86.2948 177.337C85.3899 178.547 84.2143 179.529 82.8621 180.203C81.5099 180.877 80.0187 181.226 78.5078 181.22L78.4778 181.2ZM80.9277 173.02C80.3412 173.693 79.9021 174.48 79.6386 175.333C79.375 176.186 79.293 177.084 79.3978 177.97C81.0791 177.745 82.6056 176.871 83.6504 175.535C84.6952 174.198 85.1752 172.506 84.9877 170.82C83.4165 171.049 81.9776 171.829 80.9277 173.02Z" fill="#135677"/>
<path d="M68.5166 164.34C68.1909 164.338 67.8736 164.237 67.6066 164.05C66.3 163.14 65.2416 161.917 64.5273 160.494C63.813 159.071 63.4656 157.492 63.5166 155.9C63.5681 154.46 63.948 153.051 64.6274 151.781C65.3068 150.51 66.2677 149.412 67.4366 148.57C67.7055 148.379 68.027 148.277 68.3566 148.277C68.6863 148.277 69.0078 148.379 69.2766 148.57C70.5236 149.43 71.5463 150.576 72.2588 151.912C72.9713 153.249 73.3529 154.736 73.3715 156.251C73.3901 157.765 73.0452 159.262 72.3658 160.616C71.6863 161.969 70.6921 163.14 69.4666 164.03C69.1918 164.233 68.8585 164.342 68.5166 164.34ZM66.6766 156.02C66.6494 156.878 66.7967 157.732 67.1095 158.532C67.4224 159.331 67.8943 160.059 68.4966 160.67C69.6182 159.484 70.2331 157.908 70.2107 156.276C70.1882 154.644 69.5303 153.085 68.3766 151.93C67.339 153.046 66.7358 154.497 66.6766 156.02Z" fill="#135677"/>
<path d="M54.7173 187.56C54.5506 187.562 54.3848 187.535 54.2273 187.48C52.7521 186.998 51.4132 186.171 50.3217 185.067C49.2301 183.964 48.4175 182.616 47.9511 181.136C47.4847 179.656 47.3781 178.086 47.64 176.556C47.902 175.026 48.525 173.581 49.4573 172.34C49.6555 172.078 49.9307 171.884 50.2443 171.785C50.558 171.687 50.8947 171.688 51.2073 171.79C52.6824 172.269 54.0218 173.093 55.1145 174.194C56.2071 175.295 57.0214 176.64 57.4898 178.118C57.9582 179.597 58.0671 181.166 57.8075 182.695C57.548 184.224 56.9274 185.669 55.9973 186.91C55.8516 187.113 55.6593 187.278 55.4365 187.391C55.2138 187.504 54.9672 187.562 54.7173 187.56ZM51.3473 175.28C50.6219 176.701 50.4543 178.342 50.8773 179.88C51.1048 180.746 51.5068 181.557 52.0588 182.262C52.6108 182.967 53.3011 183.551 54.0873 183.98C54.8494 182.455 54.9897 180.693 54.4785 179.067C53.9674 177.44 52.8448 176.075 51.3473 175.26V175.28Z" fill="#135677"/>
<path d="M16.8351 251.55C16.6239 251.552 16.4146 251.51 16.2202 251.427C16.0258 251.345 15.8504 251.223 15.7051 251.07C14.5472 249.911 13.6994 248.479 13.2399 246.906C12.7803 245.333 12.7236 243.67 13.0751 242.07C13.3912 240.632 14.031 239.284 14.946 238.13C15.8609 236.976 17.0267 236.046 18.3551 235.41C18.6531 235.268 18.9885 235.223 19.3135 235.282C19.6384 235.341 19.9364 235.502 20.1651 235.74C21.2628 236.837 22.0819 238.181 22.5536 239.66C23.0254 241.139 23.1362 242.709 22.8768 244.239C22.6173 245.77 21.9952 247.216 21.0623 248.456C20.1295 249.697 18.9132 250.696 17.5151 251.37C17.3052 251.481 17.0725 251.543 16.8351 251.55ZM16.1651 242.79C15.9689 243.668 15.9564 244.577 16.1285 245.46C16.3006 246.342 16.6535 247.18 17.1651 247.92C18.4448 246.97 19.3423 245.594 19.6951 244.04C19.8927 243.161 19.9059 242.25 19.7338 241.365C19.5616 240.48 19.208 239.641 18.6951 238.9C17.4162 239.851 16.5246 241.233 16.1851 242.79H16.1651Z" fill="#135677"/>
<path d="M83.6765 228.28C83.1667 228.279 82.6581 228.232 82.1566 228.14C81.8305 228.086 81.5299 227.931 81.2981 227.695C81.0662 227.46 80.9151 227.157 80.8665 226.83C80.6263 225.367 80.7588 223.867 81.2517 222.469C81.7446 221.071 82.582 219.819 83.6866 218.83C84.6802 217.942 85.8585 217.286 87.1365 216.909C88.4145 216.532 89.7602 216.444 91.0765 216.65C91.4113 216.699 91.7217 216.853 91.9627 217.091C92.2037 217.328 92.3626 217.636 92.4165 217.97C92.6165 219.237 92.5408 220.533 92.1944 221.768C91.8481 223.004 91.2393 224.15 90.4097 225.128C89.5801 226.107 88.5491 226.895 87.3871 227.439C86.2251 227.983 84.9595 228.27 83.6765 228.28ZM89.3466 219.72C88.0443 219.792 86.8059 220.307 85.8365 221.18C85.2825 221.679 84.8322 222.281 84.5113 222.954C84.1904 223.627 84.0053 224.356 83.9665 225.1C85.284 225.039 86.5377 224.515 87.5066 223.62C88.6078 222.612 89.2687 221.211 89.3466 219.72Z" fill="#135677"/>
<path d="M68.8374 231.38H68.6774C63.4374 230.99 58.6774 228.21 54.8474 223.38C53.1356 221.194 51.7356 218.781 50.6874 216.21C50.5101 215.691 50.5421 215.122 50.7767 214.626C51.0113 214.13 51.4299 213.745 51.9439 213.552C52.4578 213.36 53.0266 213.375 53.5295 213.595C54.0323 213.815 54.4297 214.222 54.6374 214.73C54.6974 214.88 59.1874 226.49 68.9874 227.22C69.5231 227.271 70.0191 227.524 70.374 227.929C70.729 228.333 70.916 228.858 70.8968 229.396C70.8777 229.933 70.6538 230.444 70.271 230.822C69.8882 231.2 69.3753 231.417 68.8374 231.43V231.38Z" fill="#135677"/>
<path d="M68.7349 217.85C68.2671 217.829 67.8196 217.653 67.4628 217.35C67.1059 217.047 66.86 216.634 66.7638 216.176C66.6676 215.717 66.7265 215.24 66.9313 214.819C67.136 214.398 67.475 214.057 67.8949 213.85C68.2649 213.68 77.0149 209.75 77.7449 200.39C77.818 199.856 78.0924 199.371 78.5117 199.033C78.9311 198.696 79.4638 198.531 80.0006 198.573C80.5374 198.615 81.0378 198.861 81.3993 199.26C81.7608 199.659 81.956 200.182 81.9449 200.72C81.0149 212.65 70.0349 217.51 69.5649 217.72C69.3 217.82 69.0175 217.864 68.7349 217.85Z" fill="#135677"/>
<path d="M41.8351 299.16C40.4692 295.411 37.983 292.172 34.7138 289.884C31.4446 287.595 27.5507 286.368 23.5602 286.368C19.5696 286.368 15.6757 287.595 12.4065 289.884C9.13731 292.172 6.65113 295.411 5.28516 299.16H41.8351Z" fill="#FFBF73"/>
<path d="M30.1756 287.52C28.0488 286.755 25.8059 286.362 23.5456 286.36C19.553 286.358 15.6566 287.586 12.386 289.876C9.11548 292.166 6.62937 295.407 5.26562 299.16H18.4856C19.4669 296.484 21.0218 294.056 23.0413 292.045C25.0608 290.034 27.4958 288.49 30.1756 287.52Z" fill="#FFAA58"/>
<path d="M106.965 302.69H1.96484C1.43163 302.653 0.932235 302.415 0.567535 302.025C0.202836 301.634 0 301.119 0 300.585C0 300.05 0.202836 299.536 0.567535 299.145C0.932235 298.754 1.43163 298.517 1.96484 298.48H106.965C107.253 298.46 107.543 298.5 107.816 298.596C108.088 298.693 108.338 298.845 108.55 299.043C108.761 299.24 108.93 299.479 109.045 299.744C109.16 300.009 109.22 300.296 109.22 300.585C109.22 300.874 109.16 301.16 109.045 301.426C108.93 301.691 108.761 301.93 108.55 302.127C108.338 302.325 108.088 302.477 107.816 302.573C107.543 302.67 107.253 302.71 106.965 302.69Z" fill="#135677"/>
<path d="M360.185 302.69H115.125C114.592 302.653 114.092 302.415 113.728 302.025C113.363 301.634 113.16 301.119 113.16 300.585C113.16 300.05 113.363 299.536 113.728 299.145C114.092 298.754 114.592 298.517 115.125 298.48H360.185C360.474 298.46 360.763 298.5 361.036 298.596C361.309 298.693 361.558 298.845 361.77 299.043C361.981 299.24 362.15 299.479 362.265 299.744C362.381 300.009 362.44 300.296 362.44 300.585C362.44 300.874 362.381 301.16 362.265 301.426C362.15 301.691 361.981 301.93 361.77 302.127C361.558 302.325 361.309 302.477 361.036 302.573C360.763 302.67 360.474 302.71 360.185 302.69Z" fill="#135677"/>
<path d="M378.305 302.69H371.095C370.806 302.71 370.517 302.67 370.244 302.573C369.971 302.477 369.722 302.325 369.51 302.127C369.299 301.93 369.13 301.691 369.015 301.426C368.899 301.16 368.84 300.874 368.84 300.585C368.84 300.296 368.899 300.009 369.015 299.744C369.13 299.479 369.299 299.24 369.51 299.043C369.722 298.845 369.971 298.693 370.244 298.596C370.517 298.5 370.806 298.46 371.095 298.48H378.305C378.594 298.46 378.883 298.5 379.156 298.596C379.429 298.693 379.678 298.845 379.89 299.043C380.101 299.24 380.27 299.479 380.385 299.744C380.501 300.009 380.56 300.296 380.56 300.585C380.56 300.874 380.501 301.16 380.385 301.426C380.27 301.691 380.101 301.93 379.89 302.127C379.678 302.325 379.429 302.477 379.156 302.573C378.883 302.67 378.594 302.71 378.305 302.69Z" fill="#135677"/>
<path d="M456.888 302.69H387.318C387.029 302.71 386.739 302.67 386.467 302.573C386.194 302.477 385.944 302.325 385.733 302.127C385.521 301.93 385.353 301.691 385.237 301.426C385.122 301.16 385.062 300.874 385.062 300.585C385.062 300.296 385.122 300.009 385.237 299.744C385.353 299.479 385.521 299.24 385.733 299.043C385.944 298.845 386.194 298.693 386.467 298.596C386.739 298.5 387.029 298.46 387.318 298.48H456.888C457.176 298.46 457.466 298.5 457.739 298.596C458.011 298.693 458.261 298.845 458.473 299.043C458.684 299.24 458.853 299.479 458.968 299.744C459.083 300.009 459.143 300.296 459.143 300.585C459.143 300.874 459.083 301.16 458.968 301.426C458.853 301.691 458.684 301.93 458.473 302.127C458.261 302.325 458.011 302.477 457.739 302.573C457.466 302.67 457.176 302.71 456.888 302.69Z" fill="#135677"/>
<path d="M47.7155 301.28C47.1559 301.28 46.6192 301.058 46.2235 300.662C45.8278 300.266 45.6055 299.73 45.6055 299.17V282.84C45.6055 282.28 45.8278 281.744 46.2235 281.348C46.6192 280.952 47.1559 280.73 47.7155 280.73C48.2751 280.73 48.8118 280.952 49.2075 281.348C49.6032 281.744 49.8255 282.28 49.8255 282.84V299.16C49.8268 299.438 49.7732 299.713 49.6678 299.971C49.5623 300.228 49.4071 300.461 49.211 300.658C49.015 300.855 48.7819 301.012 48.5253 301.118C48.2686 301.225 47.9934 301.28 47.7155 301.28Z" fill="#135677"/>
<path d="M47.7147 301.28C47.4307 301.279 47.1498 301.221 46.8887 301.109C46.6276 300.998 46.3915 300.835 46.1946 300.63C45.9989 300.431 45.845 300.194 45.7419 299.934C45.6388 299.675 45.5886 299.397 45.5942 299.117C45.5998 298.838 45.6611 298.563 45.7745 298.307C45.8879 298.052 46.0511 297.822 46.2547 297.63L56.6247 287.63C56.8126 287.4 57.0469 287.212 57.3124 287.079C57.5779 286.946 57.8685 286.87 58.1652 286.857C58.462 286.844 58.7582 286.893 59.0344 287.003C59.3107 287.112 59.5607 287.278 59.7682 287.491C59.9758 287.703 60.1361 287.957 60.2388 288.236C60.3414 288.514 60.384 288.812 60.3639 289.108C60.3437 289.404 60.2612 289.693 60.1218 289.955C59.9823 290.218 59.7891 290.448 59.5546 290.63L49.1746 300.63C48.792 301.03 48.2677 301.263 47.7147 301.28Z" fill="#135677"/>
<path d="M433.236 300.74C432.817 300.74 432.415 300.574 432.119 300.277C431.823 299.981 431.656 299.579 431.656 299.16V164.86C431.656 164.441 431.823 164.039 432.119 163.743C432.415 163.446 432.817 163.28 433.236 163.28C433.655 163.28 434.057 163.446 434.353 163.743C434.65 164.039 434.816 164.441 434.816 164.86V299.16C434.818 299.368 434.778 299.574 434.699 299.766C434.62 299.959 434.503 300.133 434.356 300.28C434.209 300.427 434.035 300.544 433.842 300.622C433.65 300.701 433.444 300.741 433.236 300.74Z" fill="#135677"/>
<path d="M433.236 166.6C433.029 166.601 432.825 166.56 432.635 166.481C432.444 166.402 432.271 166.286 432.126 166.14L408.266 142.33C408 142.029 407.859 141.637 407.872 141.236C407.885 140.834 408.05 140.452 408.334 140.168C408.618 139.884 409 139.719 409.401 139.706C409.803 139.694 410.194 139.834 410.496 140.1L434.356 163.9C434.503 164.047 434.62 164.221 434.7 164.414C434.78 164.606 434.821 164.812 434.821 165.02C434.821 165.228 434.78 165.434 434.7 165.626C434.62 165.819 434.503 165.993 434.356 166.14C434.209 166.287 434.034 166.403 433.842 166.482C433.649 166.561 433.443 166.601 433.236 166.6Z" fill="#135677"/>
<path d="M406.618 146.33L399.32 153.628L417.755 172.062L425.052 164.765L406.618 146.33Z" fill="#FFBF73"/>
<path d="M417.757 173.65C417.548 173.649 417.342 173.608 417.15 173.527C416.958 173.446 416.783 173.328 416.637 173.18L398.207 154.75C398.06 154.604 397.943 154.43 397.863 154.239C397.783 154.048 397.742 153.842 397.742 153.635C397.742 153.428 397.783 153.222 397.863 153.031C397.943 152.84 398.06 152.666 398.207 152.52L405.497 145.22C405.798 144.932 406.2 144.771 406.617 144.771C407.034 144.771 407.435 144.932 407.737 145.22L426.167 163.65C426.315 163.796 426.433 163.971 426.514 164.163C426.595 164.355 426.636 164.562 426.637 164.77C426.637 164.977 426.596 165.182 426.515 165.373C426.434 165.564 426.316 165.736 426.167 165.88L418.867 173.18C418.723 173.329 418.551 173.447 418.36 173.528C418.169 173.609 417.964 173.65 417.757 173.65ZM401.557 153.65L417.757 169.85L422.817 164.79L406.617 148.59L401.557 153.65Z" fill="#135677"/>
<path d="M439.928 300.74C439.509 300.74 439.107 300.574 438.81 300.277C438.514 299.981 438.348 299.579 438.348 299.16V190.16C438.348 189.952 438.388 189.747 438.468 189.555C438.547 189.364 438.664 189.189 438.81 189.043C438.957 188.896 439.131 188.78 439.323 188.7C439.515 188.621 439.72 188.58 439.928 188.58C440.135 188.58 440.341 188.621 440.532 188.7C440.724 188.78 440.898 188.896 441.045 189.043C441.192 189.189 441.308 189.364 441.387 189.555C441.467 189.747 441.508 189.952 441.508 190.16V299.16C441.508 299.579 441.341 299.981 441.045 300.277C440.749 300.574 440.347 300.74 439.928 300.74Z" fill="#135677"/>
<path d="M439.925 191.88C439.717 191.881 439.511 191.841 439.319 191.762C439.127 191.683 438.952 191.567 438.805 191.42C438.512 191.121 438.348 190.719 438.348 190.3C438.348 189.881 438.512 189.479 438.805 189.18L462.615 165.38C462.917 165.114 463.308 164.974 463.709 164.986C464.111 164.999 464.493 165.164 464.777 165.448C465.061 165.732 465.226 166.114 465.239 166.516C465.251 166.917 465.111 167.309 464.845 167.61L441.045 191.42C440.898 191.567 440.723 191.683 440.531 191.762C440.339 191.841 440.133 191.881 439.925 191.88Z" fill="#135677"/>
<path d="M466.52 171.569L448.086 190.003L455.383 197.301L473.818 178.866L466.52 171.569Z" fill="#FFBF73"/>
<path d="M455.375 198.89C455.169 198.89 454.965 198.85 454.774 198.771C454.584 198.692 454.411 198.576 454.265 198.43L446.965 191.13C446.67 190.832 446.504 190.43 446.504 190.01C446.504 189.59 446.67 189.188 446.965 188.89L465.395 170.46C465.542 170.312 465.717 170.195 465.909 170.115C466.101 170.036 466.307 169.994 466.515 169.994C466.723 169.994 466.93 170.036 467.122 170.115C467.314 170.195 467.488 170.312 467.635 170.46L474.935 177.76C475.228 178.06 475.393 178.461 475.395 178.88C475.395 179.296 475.23 179.696 474.935 179.99L456.495 198.43C456.348 198.577 456.174 198.693 455.981 198.772C455.789 198.851 455.583 198.891 455.375 198.89ZM450.315 190.01L455.375 195.08L471.585 178.88L466.515 173.81L450.315 190.01Z" fill="#135677"/>
<path d="M229.417 46.72C229.138 46.7173 228.871 46.6045 228.674 46.406C228.477 46.2075 228.367 45.9394 228.367 45.66V33.5C228.367 33.2215 228.478 32.9544 228.675 32.7575C228.872 32.5606 229.139 32.45 229.417 32.45C229.696 32.45 229.963 32.5606 230.16 32.7575C230.357 32.9544 230.467 33.2215 230.467 33.5V45.66C230.467 45.9394 230.357 46.2075 230.16 46.406C229.964 46.6045 229.697 46.7173 229.417 46.72Z" fill="#CCE1EA"/>
<path d="M222.625 47.93C222.406 47.9321 222.192 47.8658 222.013 47.7403C221.834 47.6148 221.698 47.4364 221.625 47.23L217.465 35.81C217.37 35.5448 217.383 35.2525 217.504 34.9975C217.624 34.7424 217.84 34.5455 218.105 34.45C218.37 34.3546 218.663 34.3683 218.918 34.4884C219.173 34.6084 219.37 34.8248 219.465 35.09L223.625 46.51C223.673 46.64 223.694 46.7781 223.689 46.9165C223.683 47.0548 223.65 47.1906 223.591 47.3161C223.533 47.4416 223.45 47.5542 223.347 47.6476C223.245 47.7409 223.125 47.8131 222.995 47.86C222.878 47.9086 222.752 47.9325 222.625 47.93Z" fill="#CCE1EA"/>
<path d="M216.614 51.4C216.462 51.4035 216.31 51.372 216.171 51.3079C216.033 51.2437 215.911 51.1487 215.814 51.03L207.964 41.65C207.785 41.4365 207.698 41.1606 207.723 40.8831C207.747 40.6055 207.881 40.349 208.094 40.17C208.308 39.991 208.584 39.9041 208.861 39.9285C209.139 39.9529 209.395 40.0865 209.574 40.3L217.424 49.67C217.604 49.8851 217.691 50.1626 217.667 50.4418C217.643 50.7211 217.509 50.9793 217.294 51.16C217.101 51.3148 216.862 51.3994 216.614 51.4Z" fill="#CCE1EA"/>
<path d="M212.194 56.67C212.011 56.6717 211.831 56.6233 211.674 56.53L201.084 50.47C200.965 50.401 200.86 50.3092 200.776 50.1998C200.692 50.0904 200.63 49.9655 200.594 49.8322C200.559 49.699 200.55 49.56 200.568 49.4232C200.586 49.2864 200.63 49.1545 200.699 49.035C200.768 48.9155 200.86 48.8107 200.969 48.7267C201.079 48.6427 201.204 48.581 201.337 48.5453C201.47 48.5095 201.609 48.5004 201.746 48.5183C201.883 48.5363 202.015 48.581 202.134 48.65L212.714 54.65C212.938 54.7533 213.117 54.9318 213.223 55.1542C213.328 55.3767 213.352 55.629 213.29 55.8672C213.228 56.1053 213.084 56.3142 212.884 56.4573C212.684 56.6003 212.44 56.6685 212.194 56.65V56.67Z" fill="#CCE1EA"/>
<path d="M209.835 63.2C209.772 63.2093 209.708 63.2093 209.645 63.2L197.645 61.05C197.499 61.0364 197.358 60.9927 197.23 60.9216C197.101 60.8505 196.989 60.7535 196.9 60.6369C196.812 60.5203 196.748 60.3865 196.713 60.2439C196.679 60.1014 196.674 59.9533 196.7 59.8089C196.726 59.6646 196.781 59.5271 196.863 59.4052C196.944 59.2833 197.05 59.1797 197.174 59.1008C197.297 59.022 197.436 58.9697 197.581 58.9471C197.726 58.9246 197.874 58.9324 198.015 58.97L210.015 61.13C210.151 61.1541 210.281 61.2049 210.398 61.2793C210.514 61.3537 210.615 61.4503 210.694 61.5636C210.773 61.677 210.828 61.8048 210.858 61.9397C210.887 62.0747 210.89 62.2141 210.865 62.35C210.816 62.5875 210.686 62.801 210.499 62.9554C210.312 63.1099 210.078 63.1961 209.835 63.2Z" fill="#CCE1EA"/>
<path d="M197.838 72.21C197.568 72.2207 197.304 72.127 197.102 71.9484C196.899 71.7698 196.773 71.52 196.75 71.251C196.727 70.9819 196.808 70.7143 196.977 70.5037C197.146 70.2931 197.39 70.1557 197.658 70.12L209.658 68.01C209.932 67.9623 210.214 68.0255 210.442 68.1859C210.67 68.3462 210.825 68.5905 210.873 68.865C210.92 69.1395 210.857 69.4217 210.697 69.6496C210.536 69.8775 210.292 70.0323 210.018 70.08L198.018 72.19L197.838 72.21Z" fill="#CCE1EA"/>
<path d="M201.606 82.69C201.36 82.7085 201.116 82.6403 200.916 82.4972C200.716 82.3542 200.572 82.1453 200.51 81.9072C200.448 81.669 200.472 81.4167 200.577 81.1942C200.682 80.9717 200.862 80.7933 201.086 80.69L211.666 74.58C211.907 74.462 212.184 74.4398 212.44 74.5179C212.697 74.596 212.914 74.7686 213.049 75.0008C213.183 75.2329 213.225 75.5075 213.165 75.769C213.105 76.0305 212.948 76.2596 212.726 76.41L202.136 82.52C201.976 82.6199 201.794 82.6784 201.606 82.69Z" fill="#CCE1EA"/>
<path d="M208.775 91.22C208.576 91.2178 208.381 91.1594 208.213 91.0514C208.045 90.9434 207.911 90.7902 207.827 90.6095C207.742 90.4288 207.71 90.2278 207.735 90.0298C207.759 89.8317 207.839 89.6446 207.965 89.49L215.815 80.17C215.904 80.0643 216.012 79.977 216.135 79.9133C216.257 79.8496 216.391 79.8105 216.528 79.7985C216.666 79.7864 216.804 79.8015 216.936 79.8429C217.067 79.8844 217.189 79.9513 217.295 80.04C217.401 80.1286 217.488 80.2372 217.552 80.3596C217.616 80.4819 217.655 80.6156 217.667 80.7531C217.679 80.8905 217.664 81.0289 217.622 81.1605C217.581 81.2921 217.514 81.4142 217.425 81.52L209.575 90.85C209.476 90.9654 209.354 91.0582 209.215 91.1221C209.077 91.1859 208.927 91.2193 208.775 91.22Z" fill="#CCE1EA"/>
<path d="M218.465 96.8C218.342 96.7996 218.221 96.7794 218.105 96.74C217.97 96.6993 217.846 96.6307 217.74 96.5386C217.633 96.4465 217.548 96.3331 217.488 96.2057C217.429 96.0784 217.397 95.9398 217.395 95.7993C217.392 95.6587 217.42 95.5193 217.475 95.39L221.635 83.91C221.73 83.6448 221.927 83.4283 222.182 83.3083C222.437 83.1883 222.73 83.1745 222.995 83.27C223.26 83.3655 223.477 83.5624 223.597 83.8174C223.717 84.0725 223.73 84.3648 223.635 84.63L219.475 96.11C219.4 96.3161 219.262 96.4935 219.081 96.6172C218.9 96.741 218.684 96.8049 218.465 96.8Z" fill="#CCE1EA"/>
<path d="M229.415 98.7C229.275 98.7071 229.135 98.6849 229.004 98.6346C228.874 98.5844 228.755 98.5073 228.656 98.4084C228.557 98.3094 228.48 98.1907 228.43 98.0601C228.38 97.9294 228.357 97.7897 228.365 97.6499V85.4799C228.365 85.2015 228.475 84.9344 228.672 84.7375C228.869 84.5406 229.136 84.4299 229.415 84.4299C229.693 84.4299 229.96 84.5406 230.157 84.7375C230.354 84.9344 230.465 85.2015 230.465 85.4799V97.6499C230.472 97.7897 230.45 97.9294 230.399 98.0601C230.349 98.1907 230.272 98.3094 230.173 98.4084C230.074 98.5073 229.955 98.5844 229.825 98.6346C229.694 98.6849 229.554 98.7071 229.415 98.7Z" fill="#CCE1EA"/>
<path d="M240.375 96.8C240.156 96.8107 239.939 96.749 239.758 96.6243C239.578 96.4996 239.443 96.3188 239.375 96.11L235.215 84.63C235.12 84.3648 235.133 84.0725 235.254 83.8174C235.374 83.5624 235.59 83.3655 235.855 83.27C236.12 83.1745 236.413 83.1883 236.668 83.3083C236.923 83.4283 237.12 83.6448 237.215 83.91L241.375 95.39C241.466 95.6528 241.451 95.9407 241.334 96.1927C241.216 96.4446 241.005 96.6409 240.745 96.74C240.626 96.7804 240.501 96.8007 240.375 96.8Z" fill="#CCE1EA"/>
<path d="M250.065 91.22C249.911 91.2195 249.759 91.1862 249.62 91.1224C249.48 91.0586 249.355 90.9657 249.255 90.85L241.405 81.52C241.226 81.3052 241.139 81.0281 241.164 80.7496C241.19 80.4711 241.325 80.2141 241.54 80.035C241.754 79.856 242.032 79.7697 242.31 79.795C242.588 79.8203 242.846 79.9552 243.025 80.17L250.865 89.49C250.994 89.6427 251.078 89.8294 251.105 90.028C251.132 90.2266 251.102 90.4288 251.018 90.6107C250.933 90.7927 250.799 90.9467 250.63 91.0547C250.461 91.1626 250.265 91.22 250.065 91.22Z" fill="#CCE1EA"/>
<path d="M257.226 82.69C257.04 82.6876 256.858 82.6395 256.696 82.55L246.116 76.44C245.873 76.3008 245.696 76.0708 245.623 75.8008C245.549 75.5307 245.587 75.2427 245.726 75C245.865 74.7573 246.095 74.5799 246.365 74.5068C246.635 74.4336 246.923 74.4708 247.166 74.61L257.756 80.72C257.996 80.8619 258.17 81.0925 258.241 81.362C258.312 81.6316 258.275 81.9182 258.136 82.16C258.048 82.3243 257.917 82.4609 257.756 82.5545C257.595 82.6481 257.412 82.6951 257.226 82.69Z" fill="#CCE1EA"/>
<path d="M261.015 72.21H260.835L248.835 70.1C248.561 70.0509 248.317 69.8948 248.157 69.666C247.998 69.4372 247.936 69.1545 247.985 68.88C248.034 68.6055 248.19 68.3617 248.419 68.2023C248.648 68.0429 248.931 67.9809 249.205 68.03L261.205 70.1399C261.345 70.156 261.48 70.2015 261.601 70.2734C261.723 70.3453 261.827 70.4421 261.908 70.5573C261.99 70.6725 262.046 70.8036 262.073 70.9419C262.1 71.0802 262.097 71.2227 262.065 71.3599C262.016 71.6016 261.885 71.8188 261.693 71.9739C261.501 72.129 261.262 72.2125 261.015 72.21Z" fill="#CCE1EA"/>
<path d="M249.006 63.2C248.736 63.2107 248.472 63.1169 248.27 62.9383C248.067 62.7597 247.941 62.51 247.918 62.2409C247.895 61.9719 247.976 61.7042 248.145 61.4936C248.314 61.283 248.558 61.1456 248.826 61.11L260.826 58.95C261.09 58.9254 261.355 59.0011 261.566 59.1622C261.778 59.3233 261.921 59.558 261.967 59.8198C262.014 60.0815 261.96 60.3512 261.817 60.5754C261.674 60.7996 261.452 60.9618 261.195 61.03L249.195 63.18C249.134 63.1964 249.07 63.2032 249.006 63.2Z" fill="#CCE1EA"/>
<path d="M246.634 56.67C246.448 56.675 246.264 56.6281 246.104 56.5345C245.943 56.4408 245.811 56.3042 245.724 56.14C245.586 55.897 245.55 55.6094 245.623 55.3397C245.696 55.0701 245.872 54.8402 246.114 54.7L256.704 48.7C256.945 48.5674 257.229 48.5361 257.494 48.613C257.758 48.6898 257.981 48.8686 258.114 49.11C258.247 49.3513 258.278 49.6355 258.201 49.8999C258.124 50.1643 257.945 50.3874 257.704 50.52L247.124 56.58C246.971 56.6508 246.802 56.6818 246.634 56.67Z" fill="#CCE1EA"/>
<path d="M242.217 51.4C241.969 51.3994 241.73 51.3148 241.537 51.16C241.325 50.9778 241.192 50.7199 241.168 50.4415C241.144 50.163 241.229 49.8861 241.407 49.67L249.257 40.3C249.345 40.1943 249.454 40.1071 249.576 40.0433C249.699 39.9796 249.832 39.9405 249.97 39.9285C250.107 39.9164 250.246 39.9315 250.377 39.9729C250.509 40.0144 250.631 40.0813 250.737 40.17C250.842 40.2586 250.93 40.3672 250.993 40.4896C251.057 40.6119 251.096 40.7456 251.108 40.8831C251.12 41.0205 251.105 41.159 251.064 41.2905C251.022 41.4221 250.955 41.5443 250.867 41.65L243.027 51.03C242.929 51.15 242.806 51.2459 242.665 51.3101C242.525 51.3743 242.371 51.4051 242.217 51.4Z" fill="#CCE1EA"/>
<path d="M236.215 47.93C236.091 47.9319 235.969 47.9081 235.855 47.86C235.72 47.8193 235.596 47.7507 235.49 47.6586C235.383 47.5666 235.298 47.4532 235.238 47.3258C235.179 47.1984 235.147 47.0599 235.145 46.9193C235.142 46.7788 235.17 46.6393 235.225 46.51L239.385 35.09C239.426 34.9555 239.494 34.831 239.586 34.7248C239.678 34.6185 239.792 34.5329 239.919 34.4735C240.047 34.414 240.185 34.3821 240.326 34.3798C240.466 34.3775 240.606 34.4048 240.735 34.46C240.995 34.5591 241.206 34.7554 241.323 35.0074C241.441 35.2594 241.456 35.5473 241.365 35.81L237.205 47.28C237.123 47.4746 236.986 47.6404 236.809 47.7562C236.633 47.872 236.426 47.9325 236.215 47.93Z" fill="#CCE1EA"/>
<path d="M229.415 76.52C235.462 76.52 240.365 71.6175 240.365 65.57C240.365 59.5225 235.462 54.62 229.415 54.62C223.367 54.62 218.465 59.5225 218.465 65.57C218.465 71.6175 223.367 76.52 229.415 76.52Z" fill="#FFBF73"/>
<path d="M391.995 39.28H307.995C307.74 39.2802 307.493 39.1882 307.3 39.021C307.107 38.8539 306.981 38.6227 306.945 38.37C306.896 37.9385 306.876 37.5042 306.885 37.07C306.884 33.9218 308.121 30.8994 310.329 28.6547C312.536 26.4099 315.537 25.1225 318.685 25.07C319.341 21.3471 321.018 17.8796 323.53 15.0545C326.042 12.2294 329.289 10.1578 332.91 9.0709C336.531 7.98398 340.382 7.92447 344.035 8.89902C347.687 9.87358 350.997 11.8439 353.595 14.59C354.534 14.4048 355.488 14.3144 356.445 14.32C359.49 14.3258 362.463 15.2459 364.979 16.9611C367.494 18.6764 369.437 21.1077 370.555 23.94C372.855 22.6309 375.458 21.9482 378.104 21.9603C380.75 21.9724 383.347 22.6788 385.635 24.0089C387.922 25.3391 389.821 27.2463 391.141 29.54C392.46 31.8338 393.155 34.4337 393.155 37.08C393.164 37.5142 393.144 37.9485 393.095 38.38C393.056 38.6396 392.921 38.8754 392.718 39.0417C392.515 39.208 392.257 39.2929 391.995 39.28ZM308.995 37.17H390.995V37.07C390.999 34.6894 390.35 32.3534 389.117 30.3166C387.885 28.2799 386.117 26.6206 384.006 25.5198C381.895 24.419 379.523 23.919 377.147 24.0742C374.772 24.2294 372.485 25.0339 370.535 26.4C370.396 26.4931 370.237 26.5524 370.071 26.573C369.905 26.5935 369.736 26.5749 369.579 26.5185C369.421 26.462 369.279 26.3695 369.164 26.2482C369.048 26.1269 368.963 25.9802 368.915 25.82C368.124 23.1107 366.477 20.7306 364.22 19.036C361.963 17.3414 359.217 16.4236 356.395 16.42C355.385 16.4066 354.377 16.5208 353.395 16.76C353.215 16.7971 353.028 16.7872 352.853 16.7311C352.678 16.675 352.52 16.5748 352.395 16.44C350.06 13.8175 347.021 11.9219 343.638 10.9795C340.256 10.037 336.674 10.0875 333.32 11.1248C329.965 12.1621 326.98 14.1425 324.72 16.8297C322.461 19.5169 321.022 22.7974 320.575 26.28C320.541 26.5254 320.422 26.7513 320.24 26.9191C320.057 27.0869 319.822 27.1862 319.575 27.2H319.155C319.068 27.1945 318.982 27.1945 318.895 27.2C316.269 27.2053 313.753 28.2514 311.897 30.109C310.041 31.9667 308.998 34.4843 308.995 37.11V37.17Z" fill="#CCE1EA"/>
<path d="M64.3062 60.62H10.6362C10.3875 60.6212 10.1472 60.5297 9.96228 60.3633C9.77737 60.1969 9.6611 59.9675 9.63623 59.72C9.58748 59.3019 9.56744 58.8809 9.57623 58.46C9.57793 55.5047 10.7343 52.6671 12.7986 50.5523C14.8629 48.4375 17.6719 47.213 20.6262 47.14C21.2588 43.6581 22.8423 40.4192 25.2015 37.7815C27.5607 35.1438 30.6037 33.2102 33.9938 32.1948C37.3838 31.1793 40.9887 31.1215 44.4095 32.0279C47.8303 32.9342 50.9337 34.7693 53.3762 37.33C54.2485 37.155 55.1366 37.0712 56.0262 37.08C58.3147 37.085 60.5685 37.6399 62.5977 38.698C64.6269 39.7561 66.3721 41.2864 67.6862 43.16C67.8174 43.3896 67.858 43.6599 67.8001 43.9178C67.7422 44.1758 67.59 44.4028 67.3733 44.5544C67.1567 44.7059 66.8912 44.771 66.6291 44.7369C66.3669 44.7028 66.1269 44.5719 65.9562 44.37C64.8386 42.7727 63.3527 41.4681 61.6243 40.5665C59.8959 39.6648 57.9757 39.1927 56.0262 39.19C55.1086 39.172 54.193 39.283 53.3062 39.52C53.1165 39.5693 52.9169 39.5666 52.7286 39.512C52.5403 39.4575 52.3702 39.3531 52.2362 39.21C50.0605 36.7667 47.2281 35.0006 44.0766 34.1221C40.9251 33.2436 37.5875 33.2898 34.4616 34.2552C31.3356 35.2206 28.5532 37.0645 26.4459 39.567C24.3386 42.0696 22.9954 45.1253 22.5762 48.37C22.5425 48.6255 22.4178 48.8602 22.2249 49.031C22.032 49.2019 21.7839 49.2974 21.5262 49.3C21.3798 49.3103 21.2327 49.3103 21.0862 49.3H20.8962C18.4526 49.3053 16.1105 50.2784 14.3826 52.0063C12.6546 53.7343 11.6815 56.0763 11.6762 58.52H64.3462C64.6083 58.5455 64.8515 58.6677 65.0284 58.8627C65.2054 59.0578 65.3034 59.3117 65.3034 59.575C65.3034 59.8383 65.2054 60.0922 65.0284 60.2872C64.8515 60.4823 64.6083 60.6045 64.3462 60.63L64.3062 60.62Z" fill="#CCE1EA"/>
<path d="M154.686 64.94H109.336C109.074 64.9144 108.831 64.7922 108.654 64.5972C108.477 64.4022 108.379 64.1483 108.379 63.885C108.379 63.6216 108.477 63.3677 108.654 63.1727C108.831 62.9777 109.074 62.8555 109.336 62.83H154.686C154.948 62.8555 155.191 62.9777 155.368 63.1727C155.545 63.3677 155.643 63.6216 155.643 63.885C155.643 64.1483 155.545 64.4022 155.368 64.5972C155.191 64.7922 154.948 64.9144 154.686 64.94Z" fill="#CCE1EA"/>
<path d="M151.527 76.58H140.527C140.265 76.5544 140.022 76.4322 139.845 76.2372C139.668 76.0422 139.57 75.7883 139.57 75.525C139.57 75.2616 139.668 75.0077 139.845 74.8127C140.022 74.6177 140.265 74.4955 140.527 74.47H151.527C151.79 74.4955 152.033 74.6177 152.21 74.8127C152.387 75.0077 152.485 75.2616 152.485 75.525C152.485 75.7883 152.387 76.0422 152.21 76.2372C152.033 76.4322 151.79 76.5544 151.527 76.58Z" fill="#CCE1EA"/>
<path d="M148.256 70.1H127.926C127.664 70.0745 127.421 69.9522 127.244 69.7572C127.067 69.5622 126.969 69.3083 126.969 69.045C126.969 68.7817 127.067 68.5278 127.244 68.3328C127.421 68.1377 127.664 68.0155 127.926 67.99H148.256C148.403 67.9756 148.552 67.9923 148.692 68.0388C148.832 68.0852 148.961 68.1606 149.071 68.2599C149.181 68.3593 149.268 68.4805 149.328 68.6157C149.388 68.7509 149.419 68.8971 149.419 69.045C149.419 69.1929 149.388 69.3391 149.328 69.4743C149.268 69.6095 149.181 69.7307 149.071 69.83C148.961 69.9294 148.832 70.0047 148.692 70.0512C148.552 70.0977 148.403 70.1143 148.256 70.1Z" fill="#CCE1EA"/>
<path d="M278.186 2.11H243.836C243.574 2.08445 243.331 1.96227 243.154 1.76724C242.977 1.57222 242.879 1.31832 242.879 1.05499C242.879 0.791666 242.977 0.537766 243.154 0.342743C243.331 0.14772 243.574 0.0255463 243.836 0H278.176C278.438 0.0255463 278.681 0.14772 278.858 0.342743C279.035 0.537766 279.133 0.791666 279.133 1.05499C279.133 1.31832 279.035 1.57222 278.858 1.76724C278.681 1.96227 278.438 2.08445 278.176 2.11H278.186Z" fill="#CCE1EA"/>
<path d="M303.158 10.28H262.438C262.176 10.2545 261.932 10.1323 261.755 9.93729C261.578 9.74226 261.48 9.48838 261.48 9.22505C261.48 8.96173 261.578 8.70782 261.755 8.5128C261.932 8.31778 262.176 8.19559 262.438 8.17004H303.158C303.42 8.19559 303.663 8.31778 303.84 8.5128C304.017 8.70782 304.115 8.96173 304.115 9.22505C304.115 9.48838 304.017 9.74226 303.84 9.93729C303.663 10.1323 303.42 10.2545 303.158 10.28Z" fill="#CCE1EA"/>
<path d="M101.486 60.62H101.276H101.156H54.1561C53.9008 60.6202 53.6541 60.5282 53.4612 60.3611C53.2683 60.1939 53.1422 59.9627 53.1061 59.71C53.0434 59.2793 53.0067 58.8452 52.9961 58.41C53.0251 56.0504 53.989 53.7987 55.6763 52.1489C57.3635 50.4991 59.6364 49.586 61.9961 49.61C62.2838 49.6094 62.5712 49.6294 62.8561 49.67C63.4549 46.6092 65.0129 43.8186 67.3044 41.7028C69.5959 39.587 72.5016 38.256 75.6004 37.9028C78.6992 37.5496 81.83 38.1925 84.5388 39.7383C87.2477 41.2841 89.3938 43.6525 90.6661 46.5C92.1374 46.0534 93.6933 45.96 95.2075 46.2274C96.7216 46.4947 98.1514 47.1154 99.3808 48.0388C100.61 48.9623 101.604 50.1627 102.283 51.5425C102.962 52.9222 103.305 54.4426 103.286 55.98C103.288 57.3553 103.009 58.7164 102.466 59.98C102.391 60.1761 102.255 60.3435 102.079 60.4584C101.904 60.5733 101.696 60.6298 101.486 60.62ZM55.0961 58.46H100.776C101.046 57.644 101.181 56.7895 101.176 55.93C101.187 53.878 100.383 51.9056 98.9416 50.4453C97.5 48.9849 95.538 48.1559 93.4861 48.14C92.4561 48.1484 91.4375 48.3555 90.4861 48.75C90.3563 48.8045 90.2169 48.8326 90.0761 48.8326C89.9353 48.8326 89.7959 48.8045 89.6661 48.75C89.5366 48.6964 89.4199 48.6162 89.3234 48.5146C89.2269 48.4129 89.1529 48.2921 89.1061 48.1601C88.208 45.7469 86.5976 43.6637 84.4884 42.1867C82.3792 40.7097 79.8709 39.9088 77.2961 39.89C74.2182 39.8858 71.246 41.0118 68.9435 43.0543C66.6411 45.0968 65.1688 47.9136 64.8061 50.97C64.7878 51.1121 64.7412 51.2489 64.6691 51.3726C64.597 51.4963 64.5007 51.6042 64.3861 51.69C64.2688 51.7745 64.136 51.8348 63.9952 51.8674C63.8544 51.9 63.7086 51.9043 63.5661 51.8801C63.0561 51.7705 62.5374 51.707 62.0161 51.69C60.215 51.666 58.4778 52.3564 57.1846 53.6102C55.8915 54.864 55.1477 56.5791 55.1161 58.3801C55.1062 58.4058 55.0995 58.4327 55.0961 58.46Z" fill="#CCE1EA"/>
</svg>
